<?xml version="1.0" encoding="iso-8859-1"?>
<!-- Generator: Adobe Illustrator 18.0.0, SVG Export Plug-In . SVG Version: 6.00 Build 0)  -->
<!DOCTYPE svg PUBLIC "-//W3C//DTD SVG 1.1//EN" "http://www.w3.org/Graphics/SVG/1.1/DTD/svg11.dtd">
<svg version="1.1" id="Capa_1" xmlns="http://www.w3.org/2000/svg" xmlns:xlink="http://www.w3.org/1999/xlink" x="0px" y="0px"
	 viewBox="0 0 468.341 468.341" style="enable-background:new 0 0 468.341 468.341;" xml:space="preserve">
<g id="XMLID_242_">
	<path id="XMLID_259_" d="M348.754,315.095H119.586c0,0.016-0.009,0.033-0.009,0.051c0,31.789,12.977,60.515,33.909,81.248
		c7.895,7.829,18.556,12.224,29.678,12.224h102.01c11.114,0,21.783-4.395,29.678-12.224c20.932-20.733,33.909-49.459,33.909-81.248
		C348.762,315.128,348.754,315.11,348.754,315.095z"/>
	<path id="XMLID_260_" d="M269.873,15.191C269.873,6.806,263.067,0,254.674,0h-41.008c-8.393,0-15.199,6.806-15.199,15.191v35.702
		h71.406V15.191z"/>
	<path id="XMLID_261_" d="M168.017,103.623h34.656h63.002h34.656c9.708,0,17.577-7.87,17.577-17.576
		c0-9.706-7.869-17.577-17.577-17.577h-17.577h-97.161h-17.577c-9.707,0-17.576,7.871-17.576,17.577
		C150.441,95.753,158.31,103.623,168.017,103.623z"/>
	<path id="XMLID_262_" d="M334.223,185.688c-19.564-14.343-28.013-34.023-31.559-61.931H165.695
		c-3.54,27.895-11.989,47.569-31.578,61.931c-48.577,35.617-76.444,84.983-76.444,135.448c0,47.332,18.546,91.78,52.232,125.174
		c14.341,14.204,33.352,22.031,53.527,22.031h141.474c20.176,0,39.188-7.827,53.537-22.039
		c33.677-33.386,52.224-77.834,52.224-125.166C410.667,270.671,382.8,221.305,334.223,185.688z M333.699,421.335
		c-7.714,7.647-17.946,11.853-28.792,11.853H163.433c-10.848,0-21.078-4.206-28.785-11.844
		c-26.965-26.743-41.821-62.325-41.821-100.208c0-39.146,22.623-78.178,62.077-107.092c28.399-20.813,39.985-49.021,44.809-79.334
		c2.334,5.406,7.69,9.199,13.954,9.199h41.008c6.264,0,11.645-3.802,13.963-9.217c4.832,30.33,16.427,58.557,44.8,79.352
		c39.453,28.914,62.077,67.946,62.077,107.092C375.514,359.019,360.657,394.601,333.699,421.335z"/>
</g>
<g>
</g>
<g>
</g>
<g>
</g>
<g>
</g>
<g>
</g>
<g>
</g>
<g>
</g>
<g>
</g>
<g>
</g>
<g>
</g>
<g>
</g>
<g>
</g>
<g>
</g>
<g>
</g>
<g>
</g>
</svg>
