<?xml version="1.0" encoding="UTF-8" standalone="no"?>
<svg
   xmlns:dc="http://purl.org/dc/elements/1.1/"
   xmlns:cc="http://creativecommons.org/ns#"
   xmlns:rdf="http://www.w3.org/1999/02/22-rdf-syntax-ns#"
   xmlns:svg="http://www.w3.org/2000/svg"
   xmlns="http://www.w3.org/2000/svg"
   xmlns:sodipodi="http://sodipodi.sourceforge.net/DTD/sodipodi-0.dtd"
   xmlns:inkscape="http://www.inkscape.org/namespaces/inkscape"
   version="1.1"
   id="svg893"
   width="480"
   height="480"
   viewBox="0 0 480 480"
   sodipodi:docname="icon.svg"
   inkscape:version="1.0.2-2 (e86c870879, 2021-01-15)">
  <metadata
     id="metadata899">
    <rdf:RDF>
      <cc:Work
         rdf:about="">
        <dc:format>image/svg+xml</dc:format>
        <dc:type
           rdf:resource="http://purl.org/dc/dcmitype/StillImage" />
        <dc:title />
      </cc:Work>
    </rdf:RDF>
  </metadata>
  <defs
     id="defs897">
    <inkscape:path-effect
       effect="bspline"
       id="path-effect46913"
       is_visible="true"
       weight="33.333333"
       steps="2"
       helper_size="0"
       apply_no_weight="true"
       apply_with_weight="true"
       only_selected="false" />
    <inkscape:path-effect
       effect="bspline"
       id="path-effect46909"
       is_visible="true"
       weight="33.333333"
       steps="2"
       helper_size="0"
       apply_no_weight="true"
       apply_with_weight="true"
       only_selected="false" />
    <inkscape:path-effect
       effect="bspline"
       id="path-effect46905"
       is_visible="true"
       weight="33.333333"
       steps="2"
       helper_size="0"
       apply_no_weight="true"
       apply_with_weight="true"
       only_selected="false" />
    <inkscape:path-effect
       effect="bspline"
       id="path-effect46901"
       is_visible="true"
       weight="33.333333"
       steps="2"
       helper_size="0"
       apply_no_weight="true"
       apply_with_weight="true"
       only_selected="false" />
    <inkscape:path-effect
       effect="bspline"
       id="path-effect46897"
       is_visible="true"
       weight="33.333333"
       steps="2"
       helper_size="0"
       apply_no_weight="true"
       apply_with_weight="true"
       only_selected="false" />
    <inkscape:path-effect
       effect="bspline"
       id="path-effect46893"
       is_visible="true"
       weight="33.333333"
       steps="2"
       helper_size="0"
       apply_no_weight="true"
       apply_with_weight="true"
       only_selected="false" />
    <inkscape:path-effect
       effect="bspline"
       id="path-effect46889"
       is_visible="true"
       weight="33.333333"
       steps="2"
       helper_size="0"
       apply_no_weight="true"
       apply_with_weight="true"
       only_selected="false" />
    <inkscape:path-effect
       effect="bspline"
       id="path-effect46885"
       is_visible="true"
       weight="33.333333"
       steps="2"
       helper_size="0"
       apply_no_weight="true"
       apply_with_weight="true"
       only_selected="false" />
  </defs>
  <sodipodi:namedview
     pagecolor="#ffffff"
     bordercolor="#666666"
     borderopacity="1"
     objecttolerance="10"
     gridtolerance="10"
     guidetolerance="10"
     inkscape:pageopacity="0"
     inkscape:pageshadow="2"
     inkscape:window-width="1920"
     inkscape:window-height="1017"
     id="namedview895"
     showgrid="false"
     inkscape:zoom="0.40898438"
     inkscape:cx="240.97399"
     inkscape:cy="198.52254"
     inkscape:window-x="1912"
     inkscape:window-y="-8"
     inkscape:window-maximized="1"
     inkscape:current-layer="svg893"
     inkscape:document-rotation="0" />
  <g
     inkscape:groupmode="layer"
     id="layer1"
     inkscape:label="Perfil"
     style="display:inline" />
  <path
     style="fill:none;fill-opacity:1;fill-rule:evenodd;stroke:#000000;stroke-width:10;stroke-miterlimit:4;stroke-dasharray:none;stroke-opacity:1"
     id="path904-7-3-9"
     sodipodi:type="arc"
     sodipodi:cx="140.82584"
     sodipodi:cy="141.04817"
     sodipodi:rx="87.415283"
     sodipodi:ry="86.800346"
     sodipodi:start="2.2446199"
     sodipodi:end="2.2342195"
     d="M 86.280584,208.87757 A 87.415283,86.800346 0 0 1 72.374309,87.063173 87.415283,86.800346 0 0 1 195.01513,72.938042 87.415283,86.800346 0 0 1 209.55916,194.67898 87.415283,86.800346 0 0 1 86.993972,209.43719"
     sodipodi:open="true" />
  <path
     style="fill:none;fill-opacity:1;fill-rule:evenodd;stroke:#000000;stroke-width:10;stroke-miterlimit:4;stroke-dasharray:none;stroke-opacity:1"
     id="path1464-8-8-9"
     sodipodi:type="arc"
     sodipodi:cx="141.28674"
     sodipodi:cy="141.60272"
     sodipodi:rx="32.557381"
     sodipodi:ry="32.870602"
     sodipodi:start="2.2446156"
     sodipodi:end="2.2342134"
     sodipodi:open="true"
     d="m 120.97175,167.28926 a 32.557381,32.870602 0 0 1 -5.17953,-46.13011 32.557381,32.870602 0 0 1 45.67692,-5.3493 32.557381,32.870602 0 0 1 5.4171,46.10229 32.557381,32.870602 0 0 1 -45.64875,5.58908" />
  <path
     style="fill:none;fill-opacity:1;fill-rule:evenodd;stroke:#000000;stroke-width:10;stroke-miterlimit:4;stroke-dasharray:none;stroke-opacity:1"
     id="path904-7-3-9-0"
     sodipodi:type="arc"
     sodipodi:cx="338.68561"
     sodipodi:cy="141.12888"
     sodipodi:rx="87.415283"
     sodipodi:ry="86.800346"
     sodipodi:start="2.2446199"
     sodipodi:end="2.2342195"
     d="M 284.14036,208.95827 A 87.415283,86.800346 0 0 1 270.23408,87.143877 87.415283,86.800346 0 0 1 392.8749,73.018745 87.415283,86.800346 0 0 1 407.41893,194.75969 87.415283,86.800346 0 0 1 284.85374,209.5179"
     sodipodi:open="true" />
  <path
     style="fill:none;fill-opacity:1;fill-rule:evenodd;stroke:#000000;stroke-width:10;stroke-miterlimit:4;stroke-dasharray:none;stroke-opacity:1"
     id="path1464-8-8-9-1"
     sodipodi:type="arc"
     sodipodi:cx="339.14648"
     sodipodi:cy="141.68343"
     sodipodi:rx="32.557381"
     sodipodi:ry="32.870602"
     sodipodi:start="2.2446156"
     sodipodi:end="2.2342134"
     sodipodi:open="true"
     d="m 318.83149,167.36997 a 32.557381,32.870602 0 0 1 -5.17953,-46.13011 32.557381,32.870602 0 0 1 45.67692,-5.34931 32.557381,32.870602 0 0 1 5.4171,46.10229 32.557381,32.870602 0 0 1 -45.64875,5.58909" />
  <path
     style="fill:none;fill-opacity:1;fill-rule:evenodd;stroke:#000000;stroke-width:10;stroke-miterlimit:4;stroke-dasharray:none;stroke-opacity:1"
     id="path904-7-3-9-1"
     sodipodi:type="arc"
     sodipodi:cx="141.82285"
     sodipodi:cy="340.04025"
     sodipodi:rx="87.415283"
     sodipodi:ry="86.800346"
     sodipodi:start="2.2446199"
     sodipodi:end="2.2342195"
     d="M 87.277593,407.86965 A 87.415283,86.800346 0 0 1 73.371318,286.05525 87.415283,86.800346 0 0 1 196.01214,271.93012 87.415283,86.800346 0 0 1 210.55617,393.67107 87.415283,86.800346 0 0 1 87.990981,408.42927"
     sodipodi:open="true" />
  <path
     style="fill:none;fill-opacity:1;fill-rule:evenodd;stroke:#000000;stroke-width:10;stroke-miterlimit:4;stroke-dasharray:none;stroke-opacity:1"
     id="path1464-8-8-9-0"
     sodipodi:type="arc"
     sodipodi:cx="142.28375"
     sodipodi:cy="340.59482"
     sodipodi:rx="32.557381"
     sodipodi:ry="32.870602"
     sodipodi:start="2.2446156"
     sodipodi:end="2.2342134"
     sodipodi:open="true"
     d="m 121.96876,366.28136 a 32.557381,32.870602 0 0 1 -5.17953,-46.13011 32.557381,32.870602 0 0 1 45.67692,-5.3493 32.557381,32.870602 0 0 1 5.41709,46.10228 32.557381,32.870602 0 0 1 -45.64874,5.58909" />
  <path
     style="fill:none;fill-opacity:1;fill-rule:evenodd;stroke:#000000;stroke-width:10;stroke-miterlimit:4;stroke-dasharray:none;stroke-opacity:1"
     id="path904-7-3-9-00"
     sodipodi:type="arc"
     sodipodi:cx="340.19476"
     sodipodi:cy="341.14304"
     sodipodi:rx="87.415283"
     sodipodi:ry="86.800346"
     sodipodi:start="2.2446199"
     sodipodi:end="2.2342195"
     d="M 285.64951,408.97243 A 87.415283,86.800346 0 0 1 271.74324,287.15804 87.415283,86.800346 0 0 1 394.38405,273.03291 87.415283,86.800346 0 0 1 408.92809,394.77385 87.415283,86.800346 0 0 1 286.3629,409.53206"
     sodipodi:open="true" />
  <path
     style="fill:none;fill-opacity:1;fill-rule:evenodd;stroke:#000000;stroke-width:10;stroke-miterlimit:4;stroke-dasharray:none;stroke-opacity:1"
     id="path1464-8-8-9-6"
     sodipodi:type="arc"
     sodipodi:cx="340.65564"
     sodipodi:cy="341.69757"
     sodipodi:rx="32.557381"
     sodipodi:ry="32.870602"
     sodipodi:start="2.2446156"
     sodipodi:end="2.2342134"
     sodipodi:open="true"
     d="m 320.34065,367.38411 a 32.557381,32.870602 0 0 1 -5.17953,-46.13011 32.557381,32.870602 0 0 1 45.67691,-5.3493 32.557381,32.870602 0 0 1 5.4171,46.10229 32.557381,32.870602 0 0 1 -45.64874,5.58908" />
  <path
     style="fill:none;fill-rule:evenodd;stroke:#000000;stroke-width:20;stroke-miterlimit:4;stroke-dasharray:none;stroke-opacity:1"
     id="path46924"
     sodipodi:type="arc"
     sodipodi:cx="240.13498"
     sodipodi:cy="239.46506"
     sodipodi:rx="25.141495"
     sodipodi:ry="25.978645"
     sodipodi:start="2.2446156"
     sodipodi:end="2.2342134"
     sodipodi:open="true"
     d="m 224.44731,259.76592 a 25.141495,25.978645 0 0 1 -3.99974,-36.45804 25.141495,25.978645 0 0 1 35.27268,-4.22772 25.141495,25.978645 0 0 1 4.1832,36.43605 25.141495,25.978645 0 0 1 -35.25092,4.41723" />
  <g
     id="g869"
     style="stroke-width:20;stroke-miterlimit:4;stroke-dasharray:none">
    <path
       inkscape:original-d="m 144.08595,21.547289 c 64.38814,0.406513 128.77527,0.814027 193.16141,1.22254"
       inkscape:path-effect="#path-effect46885"
       inkscape:connector-curvature="0"
       id="path46883"
       d="m 144.08595,21.547289 c 64.38813,0.40752 128.77526,0.815033 193.16141,1.22254"
       style="fill:none;stroke:#000000;stroke-width:20;stroke-linecap:butt;stroke-linejoin:miter;stroke-miterlimit:4;stroke-dasharray:none;stroke-opacity:1" />
    <path
       inkscape:original-d="m 23.36007,134.93793 c 0.10288,70.49883 0.20476,140.99867 0.30564,211.49951"
       inkscape:path-effect="#path-effect46889"
       inkscape:connector-curvature="0"
       id="path46887"
       d="m 23.36007,134.93793 c 0.101879,70.49883 0.203759,140.99867 0.30564,211.49951"
       style="fill:none;stroke:#000000;stroke-width:20;stroke-linecap:butt;stroke-linejoin:miter;stroke-miterlimit:4;stroke-dasharray:none;stroke-opacity:1" />
    <path
       inkscape:original-d="m 136.13944,456.46609 c 69.48205,0.10088 138.96311,0.20276 208.44317,0.30564"
       inkscape:path-effect="#path-effect46893"
       inkscape:connector-curvature="0"
       id="path46891"
       d="m 136.13944,456.46609 c 69.48205,0.10188 138.96311,0.20376 208.44317,0.30564"
       style="fill:none;stroke:#000000;stroke-width:20;stroke-linecap:butt;stroke-linejoin:miter;stroke-miterlimit:4;stroke-dasharray:none;stroke-opacity:1" />
    <path
       inkscape:original-d="m 457.51479,341.85292 c -0.0499,-67.64825 -0.10088,-135.29549 -0.15282,-202.94174 -0.38941,-3.2238 -0.77983,-6.4467 -1.17125,-9.66855 -1.1153,-4.68227 -2.23221,-9.36606 -3.34981,-14.04759 -1.36753,-5.07896 -2.73648,-10.15848 -4.10622,-15.236224 -3.4564,-6.591675 -6.91473,-13.184117 -10.3736,-19.774676 -3.96091,-5.331577 -7.92328,-10.662756 -11.88642,-15.992634 -5.29369,-5.007548 -10.58871,-10.014407 -15.88457,-15.02011 -6.2304,-4.143259 -12.53377,-8.285473 -18.80215,-12.426709 -8.644,-3.13481 -17.28834,-6.268384 -25.934,-9.401076 -6.66304,-1.225741 -13.3262,-2.450322 -19.9908,-3.673983 -2.87127,-0.300969 -5.74286,-0.600866 -8.61579,-0.899799"
       inkscape:path-effect="#path-effect46897"
       inkscape:connector-curvature="0"
       id="path46895"
       d="m 457.51479,341.85292 c -0.0509,-67.64825 -0.10188,-135.29549 -0.32261,-170.73045 -0.22073,-35.43496 -0.61115,-38.65786 -1.36454,-42.60984 -0.75339,-3.95199 -1.8703,-8.63578 -3.11287,-13.51601 -1.24257,-4.88022 -2.61152,-9.95974 -5.0246,-15.794296 -2.41308,-5.834555 -5.87141,-12.426997 -9.58126,-18.38796 -3.70986,-5.960963 -7.67222,-11.292145 -12.30056,-16.460762 -4.62834,-5.168616 -9.92336,-10.175474 -15.69186,-14.741608 -5.7685,-4.566133 -12.06092,-8.724916 -19.51695,-12.362916 -7.45603,-3.637999 -16.10037,-6.771573 -23.7546,-8.950818 -7.65424,-2.179246 -14.3174,-3.403826 -19.08529,-4.166167 -4.76788,-0.762341 -7.63947,-1.062238 -10.51229,-1.362264"
       style="fill:none;stroke:#000000;stroke-width:20;stroke-linecap:butt;stroke-linejoin:miter;stroke-miterlimit:4;stroke-dasharray:none;stroke-opacity:1" />
    <path
       inkscape:original-d="m 23.611983,345.78536 c 0.459671,3.43204 1.02027,6.86507 1.528905,10.29911 1.173453,4.97043 2.345336,9.93943 3.516498,14.91065 3.110233,7.17355 6.116637,14.34601 9.173455,21.52052 3.364836,5.37949 6.830129,10.75925 10.243699,16.1404 3.364765,3.99585 6.7282,7.99232 10.090805,11.99 4.027214,3.58583 8.053257,7.17251 12.07839,10.76026 5.097277,3.3295 10.295653,6.66011 15.441984,9.99167 6.880754,3.12444 13.761188,6.25019 20.640281,9.3768 5.70855,1.2799 11.41686,2.56096 17.12379,3.84295 4.23044,0.61379 8.46098,1.22874 12.68996,1.84462"
       inkscape:path-effect="#path-effect46905"
       inkscape:connector-curvature="0"
       id="path46903"
       d="m 23.611983,345.78536 c 0.508413,3.4248 1.019146,6.86524 1.860166,11.06753 0.84102,4.20229 2.0129,9.17129 4.132015,15.25298 2.119115,6.0817 5.168651,13.23578 8.397662,19.50136 3.229011,6.26559 6.657974,11.6684 10.047185,16.35699 3.389211,4.68858 6.752646,8.68505 10.447628,12.47688 3.694982,3.79182 7.721027,7.3785 12.289844,10.82556 4.568818,3.44706 9.752153,6.80091 15.765797,10.02894 6.013643,3.22802 12.894075,6.35377 19.18804,8.557 6.29397,2.20323 12.00228,3.4843 16.97101,4.43217 4.96874,0.94787 9.19928,1.56282 13.42842,2.17757"
       style="fill:none;stroke:#000000;stroke-width:20;stroke-linecap:butt;stroke-linejoin:miter;stroke-miterlimit:4;stroke-dasharray:none;stroke-opacity:1" />
    <path
       inkscape:original-d="m 457.51479,341.39198 c -0.83657,5.22272 -1.67414,10.44646 -2.51271,15.67119 -1.65626,5.8587 -3.31279,11.71585 -4.97069,17.57528 -3.38552,7.66715 -6.62658,15.33218 -9.94137,22.99976 -4.39406,6.22005 -8.78774,12.43912 -13.18311,18.66019 -7.27627,6.50956 -14.55086,12.87307 -21.82779,19.31112 -6.26729,3.61583 -12.67784,7.23162 -19.01827,10.84893 -7.63655,2.42239 -15.27124,4.84487 -22.90836,7.2688 -6.18993,1.01315 -12.37892,2.02699 -18.56988,3.04199"
       inkscape:path-effect="#path-effect46909"
       inkscape:connector-curvature="0"
       id="path46907"
       d="m 457.51479,341.39198 c -0.83739,5.22259 -1.67496,10.44633 -2.92229,15.98802 -1.24734,5.54168 -2.90388,11.39883 -5.39514,18.17523 -2.49126,6.77641 -5.79303,14.41519 -9.64732,21.35904 -3.85428,6.94385 -8.24795,13.16292 -14.1016,19.50805 -5.85364,6.34513 -13.09233,12.74922 -19.87322,17.76078 -6.78089,5.01157 -13.17376,8.65836 -20.16224,11.67836 -6.98848,3.02 -14.62317,5.44248 -21.53673,7.16112 -6.91356,1.71864 -13.10255,2.73248 -19.29364,3.74666"
       style="fill:none;stroke:#000000;stroke-width:20;stroke-linecap:butt;stroke-linejoin:miter;stroke-miterlimit:4;stroke-dasharray:none;stroke-opacity:1" />
    <path
       inkscape:original-d="m 23.310246,135.48212 c 0.821559,-5.40795 1.642111,-10.81489 2.461646,-16.22083 3.231245,-9.04485 6.667973,-18.09248 10.000449,-27.137215 3.487872,-6.150257 6.975664,-12.301158 10.461995,-18.450229 4.872068,-5.688723 9.745031,-11.378647 14.616031,-17.066462 9.076612,-6.559845 18.15565,-13.121169 27.23197,-19.680244 9.179746,-3.229392 18.360793,-6.458587 27.539673,-9.686371 5.74409,-1.23086 11.59126,-2.461038 17.38538,-3.690046 3.74401,-0.66713 7.89879,-1.436024 11.84668,-2.152526"
       inkscape:path-effect="#path-effect46913"
       inkscape:connector-curvature="0"
       id="path46911"
       d="m 23.310246,135.48212 c 0.820721,-5.40808 1.641269,-10.81502 3.711943,-18.02382 2.070674,-7.20879 5.417115,-16.2897 8.827404,-23.887183 3.410289,-7.597487 6.898086,-13.748385 11.077408,-19.667224 4.179321,-5.91884 9.05228,-11.608768 16.026195,-17.73247 6.973915,-6.123702 16.052955,-12.685023 25.181023,-17.579059 9.128068,-4.894035 18.309111,-8.123232 25.771681,-10.347257 7.46257,-2.224024 13.30753,-3.464617 18.07536,-4.419431 4.76783,-0.954814 8.92506,-1.710179 12.87281,-2.427479"
       style="fill:none;stroke:#000000;stroke-width:20;stroke-linecap:butt;stroke-linejoin:miter;stroke-miterlimit:4;stroke-dasharray:none;stroke-opacity:1" />
  </g>
</svg>
