<?xml version="1.0" standalone="no"?>
<!DOCTYPE svg PUBLIC "-//W3C//DTD SVG 20010904//EN"
 "http://www.w3.org/TR/2001/REC-SVG-20010904/DTD/svg10.dtd">
<svg version="1.0" xmlns="http://www.w3.org/2000/svg"
 width="1384.000000pt" height="470.000000pt" viewBox="0 0 1384.000000 470.000000"
 preserveAspectRatio="xMidYMid meet">
<metadata>
Created by potrace 1.15, written by Peter Selinger 2001-2017
</metadata>
<g transform="translate(0.000000,470.000000) scale(0.100000,-0.100000)"
fill="#000000" stroke="none">
<path d="M5213 4666 c-158 -30 -329 -104 -453 -196 -82 -61 -212 -196 -263
-272 -318 -481 -221 -1114 226 -1474 97 -77 265 -163 389 -198 308 -88 644
-34 913 147 84 57 226 197 285 283 435 629 113 1496 -627 1691 -121 31 -353
41 -470 19z m382 -350 c33 -9 103 -37 155 -63 80 -39 108 -60 185 -137 101
-102 152 -182 192 -301 25 -73 27 -94 27 -230 1 -171 -10 -219 -75 -346 -154
-297 -484 -459 -815 -398 -178 32 -360 150 -470 305 -328 460 -54 1097 511
1188 55 8 229 -2 290 -18z"/>
<path d="M7665 4665 c-229 -43 -430 -148 -591 -310 -142 -142 -237 -310 -291
-514 -21 -81 -26 -120 -27 -246 -1 -159 7 -215 51 -350 121 -378 448 -664 843
-739 105 -20 294 -20 400 0 441 83 791 434 875 877 19 100 19 302 1 399 -52
271 -201 510 -425 680 -93 70 -266 153 -386 184 -128 33 -330 41 -450 19z
m400 -355 c327 -103 538 -387 538 -725 0 -168 -39 -296 -131 -431 -49 -74
-160 -178 -236 -223 -217 -129 -501 -139 -725 -26 -194 97 -340 275 -397 485
-28 102 -26 302 4 400 86 274 299 474 568 534 99 22 286 15 379 -14z"/>
<path d="M11040 2515 l0 -565 -85 65 c-106 80 -259 156 -390 192 -91 25 -116
28 -270 28 -131 0 -188 -4 -250 -19 -415 -97 -734 -416 -831 -831 -15 -62 -19
-117 -18 -250 0 -152 3 -181 27 -270 103 -382 406 -686 780 -784 654 -171
1302 273 1376 942 7 62 11 447 11 1077 l0 980 -175 0 -175 0 0 -565z m-552
-645 c262 -74 469 -290 533 -556 30 -124 23 -284 -15 -399 -81 -238 -253 -410
-491 -491 -115 -38 -275 -45 -399 -15 -378 91 -638 469 -576 841 46 278 226
501 482 597 48 18 111 37 140 43 79 14 242 4 326 -20z"/>
<path d="M913 2226 c-347 -66 -648 -299 -797 -617 -44 -94 -82 -226 -96 -331
-6 -48 -10 -324 -10 -660 l0 -578 169 0 170 0 3 608 4 607 28 90 c44 143 88
217 196 326 82 82 108 102 190 142 130 64 200 81 340 81 139 1 207 -16 340
-80 82 -40 108 -60 191 -144 83 -82 103 -110 143 -191 82 -169 79 -144 83
-847 l4 -622 169 0 169 0 4 632 c3 707 0 675 77 833 93 193 279 344 490 401
89 24 281 24 369 0 239 -65 427 -231 518 -456 51 -128 53 -151 53 -787 l0
-593 176 0 176 0 -5 618 c-4 519 -7 629 -21 692 -93 428 -390 746 -804 858
-88 23 -114 26 -277 26 -163 0 -189 -3 -276 -26 -121 -33 -227 -82 -337 -155
-96 -63 -219 -181 -272 -261 -19 -28 -38 -52 -41 -52 -4 0 -19 19 -34 41 -15
23 -64 80 -108 126 -139 145 -321 250 -524 304 -101 27 -353 35 -460 15z"/>
<path d="M5225 2225 c-656 -123 -1053 -759 -869 -1393 51 -177 136 -316 283
-462 152 -152 302 -238 504 -291 103 -27 311 -37 428 -20 421 62 779 382 895
802 32 117 43 327 24 446 -36 227 -135 425 -298 595 -142 147 -323 254 -519
304 -126 33 -329 41 -448 19z m400 -355 c207 -66 363 -198 460 -392 61 -122
78 -209 73 -366 -4 -104 -10 -141 -32 -207 -39 -114 -98 -209 -185 -296 -406
-406 -1089 -234 -1261 316 -27 87 -37 255 -21 349 53 302 285 542 591 611 95
21 284 14 375 -15z"/>
<path d="M7665 2225 c-797 -148 -1173 -1046 -715 -1709 64 -92 201 -225 299
-291 91 -60 226 -119 335 -146 104 -26 314 -36 427 -20 422 62 778 381 895
802 35 126 44 343 20 470 -45 240 -152 437 -327 605 -135 129 -306 224 -486
270 -126 32 -328 41 -448 19z m400 -355 c205 -64 365 -201 462 -394 97 -193
101 -443 9 -650 -80 -181 -260 -341 -449 -401 -414 -131 -837 88 -967 500 -33
106 -38 274 -12 386 38 159 100 267 218 380 108 102 218 161 361 193 98 22
285 15 378 -14z"/>
<path d="M12575 2233 c-369 -50 -707 -308 -855 -651 -69 -161 -85 -243 -84
-442 0 -157 3 -185 27 -275 160 -596 776 -948 1365 -779 574 164 912 756 763
1336 -105 407 -455 731 -870 803 -76 14 -272 18 -346 8z m355 -363 c165 -47
330 -166 424 -308 244 -369 125 -860 -262 -1079 -149 -84 -352 -114 -518 -79
-384 83 -650 457 -595 836 35 236 168 435 372 558 50 30 162 71 239 88 87 18
243 11 340 -16z"/>
</g>
</svg>
